<svg xmlns="http://www.w3.org/2000/svg" xmlns:xlink="http://www.w3.org/1999/xlink" width="500" zoomAndPan="magnify" viewBox="0 0 375 374.999991" height="500" preserveAspectRatio="xMidYMid meet" version="1.2"><defs><clipPath id="d88ef619ae"><path d="M 77.324219 40.039062 L 297.824219 40.039062 L 297.824219 337.789062 L 77.324219 337.789062 Z M 77.324219 40.039062 "/></clipPath><clipPath id="6016773b3d"><path d="M 77.324219 66.289062 L 77.324219 311.25 C 77.324219 325.746094 89.078125 337.5 103.574219 337.5 L 271.425781 337.5 C 285.921875 337.5 297.675781 325.746094 297.675781 311.25 L 297.675781 66.289062 C 297.675781 51.789062 285.921875 40.039062 271.425781 40.039062 L 103.574219 40.039062 C 89.078125 40.039062 77.324219 51.789062 77.324219 66.289062 Z M 77.324219 66.289062 "/></clipPath><clipPath id="a837a41f7a"><path d="M 235 40.039062 L 297.824219 40.039062 L 297.824219 109 L 235 109 Z M 235 40.039062 "/></clipPath><clipPath id="99769fd735"><path d="M 77.324219 66.289062 L 77.324219 311.25 C 77.324219 325.746094 89.078125 337.5 103.574219 337.5 L 271.425781 337.5 C 285.921875 337.5 297.675781 325.746094 297.675781 311.25 L 297.675781 66.289062 C 297.675781 51.789062 285.921875 40.039062 271.425781 40.039062 L 103.574219 40.039062 C 89.078125 40.039062 77.324219 51.789062 77.324219 66.289062 Z M 77.324219 66.289062 "/></clipPath></defs><g id="62a5d9d693"><g clip-rule="nonzero" clip-path="url(#d88ef619ae)"><g clip-rule="nonzero" clip-path="url(#6016773b3d)"><path style=" stroke:none;fill-rule:evenodd;fill:#ffca28;fill-opacity:1;" d="M 86.203125 40.039062 L 235.75 40.039062 L 297.671875 108.035156 L 297.671875 327.914062 C 297.671875 333.054688 293.699219 337.496094 288.792969 337.496094 L 86.203125 337.496094 C 81.296875 337.496094 77.324219 333.054688 77.324219 327.914062 L 77.324219 49.617188 C 77.324219 44.476562 81.296875 40.039062 86.203125 40.039062 Z M 86.203125 40.039062 "/></g></g><g clip-rule="nonzero" clip-path="url(#a837a41f7a)"><g clip-rule="nonzero" clip-path="url(#99769fd735)"><path style=" stroke:none;fill-rule:evenodd;fill:#ffa000;fill-opacity:1;" d="M 297.671875 108.035156 L 244.628906 108.035156 C 239.722656 108.035156 235.75 103.59375 235.75 98.21875 L 235.75 40.039062 Z M 297.671875 108.035156 "/></g></g></g></svg>