<svg xmlns="http://www.w3.org/2000/svg" xmlns:xlink="http://www.w3.org/1999/xlink" width="500" zoomAndPan="magnify" viewBox="0 0 375 374.999991" height="500" preserveAspectRatio="xMidYMid meet" version="1.2"><defs><clipPath id="eae2f15b73"><path d="M 10.390625 45.8125 L 364.390625 45.8125 L 364.390625 329.3125 L 10.390625 329.3125 Z M 10.390625 45.8125 "/></clipPath><clipPath id="c6789b518b"><path d="M 10.390625 81 L 364.390625 81 L 364.390625 329.3125 L 10.390625 329.3125 Z M 10.390625 81 "/></clipPath><clipPath id="2ef9ba32b8"><path d="M 10.390625 45.8125 L 364.390625 45.8125 L 364.390625 329.3125 L 10.390625 329.3125 Z M 10.390625 45.8125 "/></clipPath><clipPath id="ac4b7bd541"><path d="M 10.390625 81 L 364.390625 81 L 364.390625 329.3125 L 10.390625 329.3125 Z M 10.390625 81 "/></clipPath></defs><g id="7f9d1e01bf"><g clip-rule="nonzero" clip-path="url(#eae2f15b73)"><path style=" stroke:none;fill-rule:nonzero;fill:#ffa000;fill-opacity:1;" d="M 328.988281 81.25 L 169.691406 81.25 L 134.289062 45.8125 L 45.789062 45.8125 C 26.320312 45.8125 10.390625 61.761719 10.390625 81.25 L 10.390625 293.875 C 10.390625 313.363281 26.320312 329.3125 45.789062 329.3125 L 308.636719 329.3125 L 364.390625 231.859375 L 364.390625 116.6875 C 364.390625 97.199219 348.460938 81.25 328.988281 81.25 Z M 328.988281 81.25 "/></g><g clip-rule="nonzero" clip-path="url(#c6789b518b)"><path style=" stroke:none;fill-rule:nonzero;fill:#ffca28;fill-opacity:1;" d="M 328.988281 81.25 L 45.789062 81.25 C 26.320312 81.25 10.390625 97.199219 10.390625 116.6875 L 10.390625 293.875 C 10.390625 313.363281 26.320312 329.3125 45.789062 329.3125 L 328.988281 329.3125 C 348.460938 329.3125 364.390625 313.363281 364.390625 293.875 L 364.390625 116.6875 C 364.390625 97.199219 348.460938 81.25 328.988281 81.25 Z M 328.988281 81.25 "/></g><g clip-rule="nonzero" clip-path="url(#2ef9ba32b8)"><path style=" stroke:none;fill-rule:nonzero;fill:#ffa000;fill-opacity:1;" d="M 328.988281 81.25 L 169.691406 81.25 L 134.289062 45.8125 L 45.789062 45.8125 C 26.320312 45.8125 10.390625 61.761719 10.390625 81.25 L 10.390625 293.875 C 10.390625 313.363281 26.320312 329.3125 45.789062 329.3125 L 308.636719 329.3125 L 364.390625 231.859375 L 364.390625 116.6875 C 364.390625 97.199219 348.460938 81.25 328.988281 81.25 Z M 328.988281 81.25 "/></g><g clip-rule="nonzero" clip-path="url(#ac4b7bd541)"><path style=" stroke:none;fill-rule:nonzero;fill:#ffca28;fill-opacity:1;" d="M 328.988281 81.25 L 45.789062 81.25 C 26.320312 81.25 10.390625 97.199219 10.390625 116.6875 L 10.390625 293.875 C 10.390625 313.363281 26.320312 329.3125 45.789062 329.3125 L 328.988281 329.3125 C 348.460938 329.3125 364.390625 313.363281 364.390625 293.875 L 364.390625 116.6875 C 364.390625 97.199219 348.460938 81.25 328.988281 81.25 Z M 328.988281 81.25 "/></g></g></svg>